<svg width="246" height="46" viewBox="0 0 246 46" fill="none" xmlns="http://www.w3.org/2000/svg">
<path d="M38.8964 34.6741V2.01122H45.1639V13.8696C46.9587 11.3751 49.3436 10.1257 52.3144 10.1257C53.8823 10.1257 55.2769 10.4247 56.5023 11.0269C57.7277 11.6249 58.7634 12.4769 59.6134 13.5788C60.4633 14.6807 61.107 15.9833 61.5485 17.4906C61.99 18.998 62.2087 20.657 62.2087 22.4716C62.2087 24.4828 61.9487 26.281 61.4247 27.8662C60.9007 29.4556 60.1827 30.7991 59.2709 31.901C58.3549 33.0028 57.2532 33.8467 55.9659 34.4283C54.6745 35.01 53.2798 35.3049 51.778 35.3049C48.7742 35.3049 46.5379 34.1211 45.069 31.7576L45.0195 34.6741H38.8964ZM50.305 30.156C51.9059 30.156 53.2097 29.4842 54.2206 28.1407C55.2315 26.7971 55.739 25.0563 55.739 22.914C55.739 17.9904 53.9111 15.5245 50.2554 15.5245C46.6988 15.5245 44.9204 18.1174 44.9204 23.3031C44.9204 25.343 45.4362 26.9979 46.4636 28.2595C47.4869 29.5252 48.7701 30.156 50.305 30.156ZM76.3982 35.309C74.4383 35.309 72.693 35.0018 71.1581 34.3873C69.6232 33.7729 68.3276 32.9127 67.2672 31.8109C66.2068 30.709 65.3981 29.3818 64.8452 27.8253C64.2882 26.2687 64.0117 24.5688 64.0117 22.7215C64.0117 20.8413 64.2964 19.125 64.87 17.5685C65.4394 16.0119 66.2646 14.6848 67.3415 13.5829C68.4184 12.481 69.7181 11.629 71.2323 11.031C72.7507 10.4329 74.4713 10.1298 76.3982 10.1298C78.292 10.1298 79.9879 10.4288 81.4897 11.031C82.9916 11.629 84.2707 12.4728 85.3352 13.5583C86.3956 14.6438 87.2126 15.9628 87.782 17.5193C88.3514 19.0759 88.6402 20.8085 88.6402 22.7215C88.6402 24.6344 88.3555 26.3589 87.782 27.899C87.2085 29.4392 86.3956 30.7581 85.3352 31.86C84.2748 32.9619 82.9834 33.8139 81.4691 34.4119C79.9507 35.0059 78.259 35.309 76.3982 35.309ZM76.3982 30.0085C80.2808 30.0085 82.2242 27.5795 82.2242 22.7174C82.2242 17.888 80.2808 15.4753 76.3982 15.4753C72.5114 15.4753 70.5722 17.888 70.5722 22.7174C70.5722 27.5795 72.5156 30.0085 76.3982 30.0085ZM102.788 35.309C100.829 35.309 99.0833 35.0018 97.5484 34.3873C96.0135 33.7729 94.7179 32.9127 93.6575 31.8109C92.5971 30.709 91.7884 29.3818 91.2355 27.8253C90.6785 26.2687 90.402 24.5688 90.402 22.7215C90.402 20.8413 90.6867 19.125 91.2603 17.5685C91.8297 16.0119 92.6549 14.6848 93.7318 13.5829C94.8087 12.481 96.1084 11.629 97.6227 11.031C99.141 10.4329 100.862 10.1298 102.788 10.1298C104.682 10.1298 106.378 10.4288 107.88 11.031C109.382 11.629 110.661 12.4728 111.726 13.5583C112.786 14.6438 113.603 15.9628 114.172 17.5193C114.742 19.0759 115.031 20.8085 115.031 22.7215C115.031 24.6344 114.746 26.3589 114.172 27.899C113.599 29.4392 112.786 30.7581 111.726 31.86C110.665 32.9619 109.374 33.8139 107.859 34.4119C106.337 35.0059 104.649 35.309 102.788 35.309ZM102.788 30.0085C106.671 30.0085 108.614 27.5795 108.614 22.7174C108.614 17.888 106.671 15.4753 102.788 15.4753C98.9017 15.4753 96.9625 17.888 96.9625 22.7174C96.9625 27.5795 98.9058 30.0085 102.788 30.0085ZM132.117 34.6741L126.827 23.9339L123.741 27.0921V34.6741H117.329V2.01122H123.741V19.85L131.671 10.7606H139.461L131.382 19.5592L139.263 34.6741H132.117ZM160.124 26.023C159.959 27.4157 159.559 28.6814 158.924 29.816C158.288 30.9507 157.479 31.9215 156.502 32.7325C155.524 33.5435 154.406 34.1744 153.147 34.629C151.889 35.0837 150.527 35.309 149.058 35.309C147.424 35.309 145.931 35.0427 144.577 34.5061C143.224 33.9695 142.056 33.1626 141.078 32.0771C140.1 30.9916 139.341 29.6481 138.801 28.0424C138.26 26.4367 137.992 24.5647 137.992 22.4265C137.992 20.2883 138.26 18.441 138.801 16.8844C139.341 15.3279 140.096 14.0581 141.078 13.0668C142.056 12.0796 143.24 11.3423 144.627 10.8548C146.013 10.3674 147.556 10.1257 149.252 10.1257C150.82 10.1257 152.248 10.3387 153.535 10.7565C154.822 11.1784 155.949 11.7929 156.914 12.6039C157.876 13.415 158.635 14.3857 159.192 15.5204C159.745 16.655 160.075 17.9207 160.17 19.3134H153.758C153.593 18.0805 153.098 17.1179 152.264 16.4215C151.431 15.7252 150.411 15.377 149.203 15.377C148.518 15.377 147.882 15.4917 147.292 15.717C146.706 15.9423 146.191 16.3232 145.749 16.8598C145.308 17.3964 144.957 18.1092 144.697 18.998C144.437 19.891 144.305 20.9847 144.305 22.2791C144.305 24.9047 144.779 26.8463 145.724 28.112C146.669 29.3777 147.763 30.0085 149.005 30.0085C150.246 30.0085 151.307 29.6686 152.186 28.9886C153.065 28.3086 153.572 27.3215 153.704 26.023H160.124ZM177.062 34.6741C176.868 34.0597 176.736 33.3469 176.67 32.5359C175.919 33.3797 174.924 34.0515 173.682 34.5512C172.441 35.055 171.005 35.3049 169.375 35.3049C166.598 35.3049 164.568 34.6987 163.281 33.4821C161.989 32.2655 161.346 30.6885 161.346 28.7428C161.346 27.0265 161.622 25.6584 162.179 24.6344C162.732 23.6144 163.499 22.8116 164.481 22.2299C165.459 21.6483 166.627 21.2182 167.98 20.9437C169.334 20.6693 170.811 20.4194 172.412 20.19C174.013 19.9647 175.089 19.6657 175.642 19.2889C176.195 18.9161 176.476 18.3099 176.476 17.4661C176.476 16.6878 176.109 16.0816 175.374 15.6433C174.64 15.205 173.654 14.9879 172.412 14.9879C170.943 14.9879 169.891 15.3115 169.255 15.9587C168.62 16.6059 168.22 17.4661 168.055 18.5352H162.13C162.163 17.3022 162.365 16.1717 162.74 15.1312C163.116 14.0949 163.718 13.202 164.552 12.4565C165.385 11.7109 166.47 11.1375 167.807 10.732C169.144 10.3264 170.778 10.1257 172.705 10.1257C174.598 10.1257 176.204 10.3387 177.528 10.7565C178.848 11.1784 179.909 11.7847 180.709 12.5793C181.51 13.374 182.087 14.3612 182.446 15.545C182.805 16.7288 182.987 18.0641 182.987 19.5551V34.67H177.062V34.6741ZM176.62 22.9631C176.294 23.2867 175.82 23.5448 175.201 23.7414C174.582 23.9339 173.682 24.1469 172.507 24.3722C170.679 24.7286 169.42 25.1833 168.735 25.7321C168.05 26.2851 167.708 27.0757 167.708 28.112C167.708 29.8938 168.735 30.7868 170.794 30.7868C171.611 30.7868 172.37 30.6475 173.072 30.3731C173.773 30.0987 174.376 29.7259 174.883 29.2548C175.391 28.7838 175.795 28.2349 176.109 27.6041C176.418 26.9733 176.575 26.3015 176.575 25.5888L176.62 22.9631ZM214.027 34.6741V20.19C214.027 18.7318 213.685 17.548 213 16.6427C212.315 15.7375 211.399 15.2828 210.26 15.2828C209.084 15.2828 208.114 15.7703 207.347 16.741C206.58 17.7118 206.196 18.9284 206.196 20.3866V34.6782H199.829V20.2883C199.829 19.3175 199.763 18.5229 199.635 17.9085C199.503 17.294 199.285 16.8066 198.975 16.4502C198.666 16.0939 198.266 15.844 197.775 15.6965C197.284 15.5491 196.698 15.4794 196.013 15.4794C193.434 15.4794 192.147 17.036 192.147 20.145V34.6782H185.78V10.7606H191.755V14.2588C192.572 12.6695 193.549 11.584 194.692 11.0023C195.835 10.4207 197.205 10.1257 198.806 10.1257C199.623 10.1257 200.349 10.1913 200.985 10.3182C201.62 10.4493 202.194 10.6664 202.697 10.9736C203.204 11.2808 203.683 11.6782 204.141 12.1656C204.599 12.6531 205.053 13.2347 205.511 13.9147C206.163 12.5875 207.029 11.6208 208.106 11.0228C209.183 10.4247 210.487 10.1216 212.022 10.1216C213.231 10.1216 214.341 10.3264 215.352 10.7279C216.362 11.1334 217.229 11.6987 217.947 12.4278C218.665 13.1569 219.226 14.0089 219.634 14.9797C220.043 15.9505 220.245 16.9909 220.245 18.0887V34.6618H214.027V34.6741ZM222.696 46V10.7606H228.815L228.864 13.6771C230.333 11.3136 232.57 10.1298 235.573 10.1298C237.075 10.1298 238.47 10.4207 239.761 11.0064C241.049 11.5881 242.15 12.4319 243.066 13.5337C243.978 14.6356 244.696 15.9792 245.22 17.5685C245.74 19.1578 246.004 20.956 246.004 22.9631C246.004 24.7777 245.785 26.4367 245.344 27.9441C244.902 29.4515 244.259 30.754 243.409 31.8559C242.559 32.9578 241.523 33.8098 240.302 34.4078C239.076 35.0059 237.682 35.309 236.114 35.309C233.143 35.309 230.758 34.0637 228.963 31.5651V46H222.696ZM234.055 29.9102C237.711 29.9102 239.539 27.4484 239.539 22.5207C239.539 20.3825 239.031 18.6417 238.02 17.294C237.009 15.9505 235.701 15.2787 234.105 15.2787C232.57 15.2787 231.291 15.9095 230.263 17.1752C229.236 18.441 228.72 20.0917 228.72 22.1316C228.716 27.3215 230.494 29.9102 234.055 29.9102Z" fill="#EDEEF0"/>
<path d="M15.0065 10.392H4.5758V1.29849V0H3.26784H1.30796H0V1.29849V13.6362V16.4134V17.7118V32.4089V34.6741L1.96813 33.5313L9.1351 29.3818L16.3021 33.5313L18.2702 34.6741V32.4089V13.6362C18.2702 11.8461 16.8055 10.392 15.0065 10.392ZM4.5758 17.7159V16.4175V14.9387H13.6944V26.7685L9.79527 24.5115L9.1351 24.1305L8.47493 24.5115L4.5758 26.7685V17.7159Z" fill="#EDEEF0"/>
</svg>
