<svg width="186" height="35" viewBox="0 0 186 35" fill="none" xmlns="http://www.w3.org/2000/svg">
<path d="M29.2514 26.3825V1.5303H33.9647V10.553C35.3145 8.65497 37.108 7.70439 39.3421 7.70439C40.5212 7.70439 41.57 7.93191 42.4916 8.39005C43.4131 8.84509 44.192 9.49335 44.8312 10.3317C45.4704 11.1701 45.9544 12.1612 46.2865 13.3081C46.6185 14.4551 46.7829 15.7173 46.7829 17.098C46.7829 18.6283 46.5874 19.9965 46.1934 21.2026C45.7993 22.4119 45.2594 23.4341 44.5736 24.2725C43.8848 25.1109 43.0563 25.7529 42.0882 26.1955C41.117 26.6381 40.0682 26.8624 38.9387 26.8624C36.6798 26.8624 34.998 25.9617 33.8933 24.1634L33.8561 26.3825H29.2514ZM37.831 22.9448C39.0349 22.9448 40.0154 22.4337 40.7757 21.4114C41.5359 20.3892 41.9175 19.0646 41.9175 17.4346C41.9175 13.6884 40.5429 11.8121 37.7937 11.8121C35.119 11.8121 33.7816 13.785 33.7816 17.7307C33.7816 19.2828 34.1695 20.5419 34.9421 21.5018C35.7117 22.4649 36.6767 22.9448 37.831 22.9448ZM57.4539 26.8656C55.98 26.8656 54.6675 26.6318 53.5132 26.1643C52.3589 25.6968 51.3846 25.0423 50.5871 24.2039C49.7897 23.3656 49.1815 22.3558 48.7657 21.1714C48.3468 19.9871 48.1389 18.6937 48.1389 17.2881C48.1389 15.8576 48.353 14.5517 48.7843 13.3673C49.2125 12.183 49.8331 11.1732 50.643 10.3348C51.4528 9.49647 52.4303 8.8482 53.569 8.39317C54.7109 7.93814 56.0049 7.70751 57.4539 7.70751C58.8782 7.70751 60.1535 7.93502 61.2829 8.39317C62.4124 8.8482 63.3743 9.49023 64.1749 10.3161C64.9723 11.1421 65.5867 12.1456 66.0149 13.3299C66.4431 14.5143 66.6603 15.8326 66.6603 17.2881C66.6603 18.7436 66.4462 20.0557 66.0149 21.2275C65.5836 22.3994 64.9723 23.403 64.1749 24.2413C63.3774 25.0797 62.4062 25.728 61.2674 26.183C60.1255 26.6349 58.8533 26.8656 57.4539 26.8656ZM57.4539 22.8326C60.3738 22.8326 61.8353 20.9844 61.8353 17.285C61.8353 13.6104 60.3738 11.7747 57.4539 11.7747C54.531 11.7747 53.0726 13.6104 53.0726 17.285C53.0726 20.9844 54.5341 22.8326 57.4539 22.8326ZM77.3003 26.8656C75.8264 26.8656 74.5138 26.6318 73.3596 26.1643C72.2053 25.6968 71.2309 25.0423 70.4335 24.2039C69.636 23.3656 69.0279 22.3558 68.6121 21.1714C68.1932 19.9871 67.9853 18.6937 67.9853 17.2881C67.9853 15.8576 68.1994 14.5517 68.6307 13.3673C69.0589 12.183 69.6795 11.1732 70.4893 10.3348C71.2992 9.49647 72.2766 8.8482 73.4154 8.39317C74.5573 7.93814 75.8512 7.70751 77.3003 7.70751C78.7245 7.70751 79.9998 7.93502 81.1293 8.39317C82.2588 8.8482 83.2207 9.49023 84.0212 10.3161C84.8187 11.1421 85.4331 12.1456 85.8613 13.3299C86.2895 14.5143 86.5067 15.8326 86.5067 17.2881C86.5067 18.7436 86.2926 20.0557 85.8613 21.2275C85.43 22.3994 84.8187 23.403 84.0212 24.2413C83.2238 25.0797 82.2526 25.728 81.1138 26.183C79.9688 26.6349 78.6997 26.8656 77.3003 26.8656ZM77.3003 22.8326C80.2201 22.8326 81.6816 20.9844 81.6816 17.285C81.6816 13.6104 80.2201 11.7747 77.3003 11.7747C74.3773 11.7747 72.9189 13.6104 72.9189 17.285C72.9189 20.9844 74.3804 22.8326 77.3003 22.8326ZM99.3559 26.3825L95.378 18.2106L93.057 20.6136V26.3825H88.235V1.5303H93.057V15.1033L99.0208 8.18747H104.879L98.8036 14.882L104.73 26.3825H99.3559ZM120.419 19.8001C120.295 20.8598 119.994 21.8228 119.516 22.6861C119.038 23.5494 118.43 24.2881 117.694 24.9052C116.959 25.5223 116.118 26.0023 115.172 26.3482C114.225 26.6942 113.201 26.8656 112.097 26.8656C110.868 26.8656 109.745 26.663 108.727 26.2547C107.709 25.8464 106.831 25.2324 106.096 24.4065C105.36 23.5806 104.789 22.5584 104.383 21.3366C103.976 20.1149 103.775 18.6906 103.775 17.0637C103.775 15.4368 103.976 14.0312 104.383 12.8469C104.789 11.6625 105.357 10.6964 106.096 9.94215C106.831 9.19103 107.721 8.63004 108.764 8.25916C109.807 7.88827 110.967 7.70439 112.242 7.70439C113.422 7.70439 114.495 7.86646 115.463 8.18436C116.431 8.50537 117.278 8.97287 118.005 9.58997C118.728 10.2071 119.298 10.9457 119.717 11.809C120.133 12.6723 120.381 13.6354 120.453 14.695H115.631C115.507 13.7569 115.134 13.0245 114.508 12.4947C113.881 11.9649 113.114 11.6999 112.205 11.6999C111.69 11.6999 111.212 11.7872 110.769 11.9586C110.328 12.13 109.94 12.4199 109.608 12.8282C109.276 13.2364 109.012 13.7787 108.817 14.4551C108.621 15.1345 108.522 15.9666 108.522 16.9515C108.522 18.9493 108.879 20.4266 109.589 21.3896C110.3 22.3527 111.122 22.8326 112.056 22.8326C112.99 22.8326 113.788 22.5739 114.449 22.0566C115.11 21.5392 115.491 20.7881 115.59 19.8001H120.419ZM133.156 26.3825C133.01 25.915 132.911 25.3727 132.861 24.7556C132.297 25.3976 131.549 25.9088 130.615 26.289C129.681 26.6723 128.601 26.8624 127.375 26.8624C125.287 26.8624 123.761 26.4012 122.792 25.4755C121.821 24.5499 121.337 23.35 121.337 21.8696C121.337 20.5637 121.545 19.5227 121.964 18.7436C122.38 17.9675 122.957 17.3567 123.695 16.9141C124.431 16.4715 125.309 16.1443 126.327 15.9355C127.344 15.7267 128.455 15.5365 129.659 15.362C130.863 15.1906 131.673 14.9631 132.089 14.6763C132.505 14.3927 132.716 13.9315 132.716 13.2894C132.716 12.6973 132.439 12.236 131.887 11.9025C131.335 11.569 130.593 11.4039 129.659 11.4039C128.555 11.4039 127.763 11.6501 127.285 12.1425C126.808 12.6349 126.507 13.2894 126.382 14.1029H121.927C121.951 13.1648 122.104 12.3046 122.386 11.5129C122.668 10.7244 123.121 10.045 123.748 9.47777C124.375 8.91054 125.191 8.4742 126.196 8.16566C127.202 7.85711 128.43 7.70439 129.879 7.70439C131.304 7.70439 132.511 7.86646 133.507 8.18436C134.5 8.50537 135.297 8.96663 135.899 9.57127C136.501 10.1759 136.936 10.927 137.206 11.8277C137.475 12.7284 137.612 13.7445 137.612 14.8789V26.3794H133.156V26.3825ZM132.824 17.472C132.579 17.7182 132.222 17.9145 131.757 18.0641C131.291 18.2106 130.615 18.3727 129.731 18.5441C128.356 18.8153 127.41 19.1612 126.894 19.5788C126.379 19.9996 126.122 20.6011 126.122 21.3896C126.122 22.7454 126.894 23.4248 128.443 23.4248C129.057 23.4248 129.628 23.3188 130.156 23.11C130.683 22.9012 131.136 22.6176 131.518 22.2592C131.899 21.9007 132.204 21.4831 132.439 21.0031C132.672 20.5232 132.79 20.012 132.79 19.4698L132.824 17.472ZM160.955 26.3825V15.362C160.955 14.2525 160.698 13.3518 160.183 12.663C159.668 11.9742 158.979 11.6283 158.122 11.6283C157.238 11.6283 156.509 11.9991 155.932 12.7378C155.355 13.4764 155.066 14.4021 155.066 15.5116V26.3856H150.278V15.4368C150.278 14.6982 150.229 14.0935 150.132 13.626C150.033 13.1585 149.869 12.7877 149.636 12.5165C149.403 12.2454 149.102 12.0552 148.733 11.943C148.364 11.8308 147.923 11.7779 147.408 11.7779C145.469 11.7779 144.501 12.9622 144.501 15.3277V26.3856H139.713V8.18747H144.206V10.8491C144.82 9.63983 145.555 8.81392 146.415 8.37136C147.275 7.92879 148.305 7.70439 149.509 7.70439C150.123 7.70439 150.669 7.75426 151.147 7.85087C151.625 7.95061 152.056 8.11579 152.435 8.34954C152.816 8.58329 153.176 8.8856 153.521 9.25648C153.865 9.62737 154.206 10.0699 154.551 10.5873C155.041 9.5775 155.693 8.84197 156.503 8.38694C157.313 7.93191 158.293 7.70127 159.447 7.70127C160.356 7.70127 161.191 7.85711 161.951 8.16254C162.712 8.47109 163.363 8.90119 163.903 9.45595C164.443 10.0107 164.865 10.659 165.172 11.3976C165.479 12.1363 165.631 12.9279 165.631 13.7632V26.3731H160.955V26.3825ZM167.475 35V8.18747H172.076L172.114 10.4065C173.218 8.60822 174.9 7.70751 177.159 7.70751C178.288 7.70751 179.337 7.92879 180.308 8.37447C181.276 8.81704 182.105 9.45907 182.794 10.2974C183.48 11.1358 184.019 12.1581 184.414 13.3673C184.805 14.5766 185.003 15.9448 185.003 17.472C185.003 18.8527 184.839 20.1149 184.507 21.2618C184.175 22.4088 183.691 23.3998 183.051 24.2382C182.412 25.0766 181.633 25.7249 180.715 26.1799C179.793 26.6349 178.744 26.8656 177.565 26.8656C175.331 26.8656 173.538 25.9181 172.188 24.0169V35H167.475ZM176.017 22.7578C178.766 22.7578 180.141 20.8847 180.141 17.1354C180.141 15.5085 179.759 14.1839 178.999 13.1585C178.239 12.1363 177.255 11.6251 176.054 11.6251C174.9 11.6251 173.938 12.1051 173.165 13.0681C172.393 14.0312 172.005 15.2872 172.005 16.8393C172.002 20.7881 173.339 22.7578 176.017 22.7578Z" fill="url(#paint0_linear)"/>
<path d="M11.2854 7.90695H3.44115V0.987979V0H2.45752H0.98363H0V0.987979V10.3753V12.4884V13.4764V24.6589V26.3825L1.4801 25.5129L6.86989 22.3557L12.2597 25.5129L13.7398 26.3825V24.6589V10.3753C13.7398 9.01336 12.6382 7.90695 11.2854 7.90695ZM3.44115 13.4795V12.4915V11.3664H10.2986V20.3673L7.36636 18.65L6.86989 18.3602L6.37343 18.65L3.44115 20.3673V13.4795Z" fill="url(#paint1_linear)"/>
<defs>
<linearGradient id="paint0_linear" x1="107.126" y1="35.001" x2="107.126" y2="1.53074" gradientUnits="userSpaceOnUse">
<stop stop-color="#6BA143"/>
<stop offset="1" stop-color="#009386"/>
</linearGradient>
<linearGradient id="paint1_linear" x1="6.87036" y1="26.3836" x2="6.87036" y2="0" gradientUnits="userSpaceOnUse">
<stop stop-color="#6BA143"/>
<stop offset="1" stop-color="#009386"/>
</linearGradient>
</defs>
</svg>
