<svg width="246" height="48" viewBox="0 0 246 48" fill="none" xmlns="http://www.w3.org/2000/svg">
<path d="M222.214 47.7909H23.8393C10.6607 47.7909 0 37.0931 0 23.9223C0 10.6979 10.6607 0 23.8393 0H222.214C235.339 0 246.054 10.6979 246.054 23.9223C246 37.0931 235.339 47.7909 222.214 47.7909ZM23.8393 2.6879C12.1607 2.6879 2.67857 12.2031 2.67857 23.9223C2.67857 35.6416 12.1607 45.1568 23.8393 45.1568H222.214C233.893 45.1568 243.375 35.6416 243.375 23.9223C243.375 12.2031 233.839 2.6879 222.214 2.6879H23.8393Z" fill="#FCFCFC"/>
<path d="M27.6964 27.4704C23.4643 27.4704 19.9822 24.0299 19.9822 19.7292C19.9822 15.4286 23.4643 11.9881 27.6964 11.9881C31.9286 11.9881 35.4107 15.4286 35.4107 19.7292C35.4107 24.0299 31.9822 27.4704 27.6964 27.4704ZM27.6964 14.676C24.9107 14.676 22.6607 16.9338 22.6607 19.7292C22.6607 22.5246 24.9107 24.7825 27.6964 24.7825C30.4822 24.7825 32.7322 22.5246 32.7322 19.7292C32.7322 16.9338 30.4822 14.676 27.6964 14.676Z" fill="#FCFCFC"/>
<path d="M37.3393 35.8029H18.0536V34.4589C18.0536 29.1369 22.3929 24.7825 27.6964 24.7825C33 24.7825 37.3393 29.1369 37.3393 34.4589V35.8029ZM20.8929 33.115H34.5536C33.9107 29.8895 31.125 27.4704 27.6964 27.4704C24.3214 27.4704 21.5357 29.8895 20.8929 33.115Z" fill="#FCFCFC"/>
</svg>
