<svg width="246" height="48" viewBox="0 0 246 48" fill="none" xmlns="http://www.w3.org/2000/svg">
<path d="M222.214 48H23.8393C10.6607 48 0 37.2484 0 24.0776C0 10.9069 10.6607 0.155296 23.8393 0.155296H222.214C235.339 0.155296 246.054 10.8532 246.054 24.0776C246.054 37.3021 235.339 48 222.214 48ZM23.8393 2.89696C12.1607 2.89696 2.67857 12.4121 2.67857 24.1314C2.67857 35.8507 12.1607 45.3658 23.8393 45.3658H222.214C233.893 45.3658 243.375 35.8507 243.375 24.1314C243.375 12.4121 233.893 2.89696 222.214 2.89696H23.8393Z" fill="#FCFCFC"/>
<path d="M32.3036 34.0229H23.1964C21.4821 34.0229 20.0357 32.6252 20.0357 30.8512V23.2175C20.0357 21.4973 21.4286 20.0458 23.1964 20.0458H32.3036C34.0178 20.0458 35.4643 21.4435 35.4643 23.2175V30.8512C35.4107 32.6252 34.0178 34.0229 32.3036 34.0229ZM23.1428 22.7875C22.875 22.7875 22.6607 23.0025 22.6607 23.2713V30.9049C22.6607 31.1737 22.875 31.3888 23.1428 31.3888H32.25C32.5178 31.3888 32.7321 31.1737 32.7321 30.9049V23.2713C32.7321 23.0025 32.5178 22.7875 32.25 22.7875H23.1428Z" fill="#FCFCFC"/>
<path d="M23.7857 21.4435H21.1071V18.5406C21.1071 14.885 24.0536 11.9283 27.6964 11.9283C31.3393 11.9283 34.2857 14.885 34.2857 18.5406H31.6071C31.6071 16.3902 29.8393 14.6162 27.6964 14.6162C25.5536 14.6162 23.7857 16.3902 23.7857 18.5406V21.4435Z" fill="#FCFCFC"/>
</svg>
