<svg width="368" height="29" viewBox="0 0 368 29" fill="none" xmlns="http://www.w3.org/2000/svg">
<rect width="368" height="29" rx="14.5" fill="#0B826D"/>
<path d="M33 22.6295L27.1538 17.459C28.0769 16.2131 28.7538 14.6557 28.7538 12.9738C28.7538 8.55082 25.1846 5 20.8769 5C16.5077 5 13 8.55082 13 12.9738C13 17.3967 16.5077 20.9475 20.8769 20.9475C22.8462 20.9475 24.6308 20.1377 25.9846 18.8918L31.7692 24L33 22.6295ZM20.8769 19.0787C17.5538 19.0787 14.8462 16.3377 14.8462 12.9738C14.8462 9.60984 17.5538 6.86885 20.8769 6.86885C24.2 6.86885 26.9077 9.60984 26.9077 12.9738C26.9077 16.3377 24.2 19.0787 20.8769 19.0787Z" fill="white"/>
</svg>
