<svg width="27" height="26" viewBox="0 0 27 26" fill="none" xmlns="http://www.w3.org/2000/svg">
<path d="M26.0357 22.2857H0.964286C0.708541 22.2857 0.463271 22.3835 0.282433 22.5577C0.101594 22.7318 0 22.968 0 23.2143L0 25.0714C0 25.3177 0.101594 25.5539 0.282433 25.728C0.463271 25.9022 0.708541 26 0.964286 26H26.0357C26.2915 26 26.5367 25.9022 26.7176 25.728C26.8984 25.5539 27 25.3177 27 25.0714V23.2143C27 22.968 26.8984 22.7318 26.7176 22.5577C26.5367 22.3835 26.2915 22.2857 26.0357 22.2857ZM26.0357 14.8571H0.964286C0.708541 14.8571 0.463271 14.955 0.282433 15.1291C0.101594 15.3033 0 15.5394 0 15.7857L0 17.6429C0 17.8891 0.101594 18.1253 0.282433 18.2995C0.463271 18.4736 0.708541 18.5714 0.964286 18.5714H26.0357C26.2915 18.5714 26.5367 18.4736 26.7176 18.2995C26.8984 18.1253 27 17.8891 27 17.6429V15.7857C27 15.5394 26.8984 15.3033 26.7176 15.1291C26.5367 14.955 26.2915 14.8571 26.0357 14.8571ZM26.0357 7.42857H0.964286C0.708541 7.42857 0.463271 7.5264 0.282433 7.70054C0.101594 7.87468 0 8.11087 0 8.35714L0 10.2143C0 10.4606 0.101594 10.6967 0.282433 10.8709C0.463271 11.045 0.708541 11.1429 0.964286 11.1429H26.0357C26.2915 11.1429 26.5367 11.045 26.7176 10.8709C26.8984 10.6967 27 10.4606 27 10.2143V8.35714C27 8.11087 26.8984 7.87468 26.7176 7.70054C26.5367 7.5264 26.2915 7.42857 26.0357 7.42857ZM26.0357 0H0.964286C0.708541 0 0.463271 0.0978313 0.282433 0.271972C0.101594 0.446113 0 0.682299 0 0.928571L0 2.78571C0 3.03199 0.101594 3.26817 0.282433 3.44231C0.463271 3.61645 0.708541 3.71429 0.964286 3.71429H26.0357C26.2915 3.71429 26.5367 3.61645 26.7176 3.44231C26.8984 3.26817 27 3.03199 27 2.78571V0.928571C27 0.682299 26.8984 0.446113 26.7176 0.271972C26.5367 0.0978313 26.2915 0 26.0357 0Z" fill="#FCFCFC"/>
</svg>
