<svg width="32" height="27" viewBox="0 0 32 27" fill="none" xmlns="http://www.w3.org/2000/svg">
<path d="M15.9773 27C15.7725 27 15.4653 26.8967 15.2604 26.7933C14.7483 26.4833 1.53628 19.0435 0.102419 10.5704C-0.307257 7.7805 0.512094 5.19723 2.56047 2.82062C4.50643 0.754011 6.65723 -0.175965 8.91045 0.030696C12.0854 0.444019 14.5435 3.13062 15.9773 5.19723C17.4112 3.23395 19.9717 0.547349 23.0443 0.030696C25.2975 -0.175965 27.4483 0.65068 29.3942 2.82062C31.545 5.0939 32.3644 7.67717 31.8523 10.5704C30.5208 19.0435 17.3088 26.4833 16.7967 26.7933C16.4894 26.8967 16.2846 27 15.9773 27ZM8.09109 3.13062C6.96449 3.13062 5.9403 3.7506 4.81369 4.88724C3.37982 6.4372 2.76531 8.19382 3.07257 10.0538C3.99434 15.5303 12.1878 21.3168 15.9773 23.5901C19.8693 21.3168 27.9604 15.5303 28.8821 10.0538C29.1894 8.19382 28.5749 6.54053 27.141 4.88724C25.912 3.54394 24.7854 2.92395 23.4539 3.13062C20.6886 3.54394 18.1281 7.4705 17.4112 8.91713C16.8991 9.95044 15.2604 9.95044 14.6459 8.91713C13.929 7.4705 11.2661 3.54394 8.50077 3.13062C8.39835 3.13062 8.29593 3.13062 8.09109 3.13062Z" fill="#FCFCFC"/>
</svg>
