<svg width="213" height="51" viewBox="0 0 213 51" fill="none" xmlns="http://www.w3.org/2000/svg">
<g filter="url(#filter0_d)">
<rect x="2" width="209" height="47" rx="20" fill="#FCFCFC"/>
</g>
<g clip-path="url(#clip0)">
<path d="M36 23.9583C36 23.2302 35.941 22.4981 35.815 21.7818H25.7116V25.9066H31.4973C31.2572 27.2369 30.4858 28.4138 29.3562 29.1616V29.1644C29.3574 29.1636 29.359 29.1628 29.3601 29.1616L32.81 31.8364C34.8358 29.9708 36 27.2161 36 23.9583Z" fill="#4285F4"/>
<path d="M29.3562 29.164C28.3962 29.8158 27.158 30.1845 25.7155 30.1845C22.921 30.1845 20.5516 28.2992 19.7014 25.7645H19.6975L16.1394 28.5236C17.9578 32.1407 21.6615 34.4235 25.7116 34.4235C28.6005 34.4235 31.0368 33.475 32.8119 31.8376L32.81 31.8361L29.3601 29.1612C29.359 29.1624 29.3574 29.1632 29.3562 29.164Z" fill="#34A853"/>
<path d="M19.6975 21.6637L16.1394 18.9046C14.6202 21.9313 14.6202 25.4973 16.1394 28.524L19.6975 25.7649C19.2488 24.4346 19.2488 22.994 19.6975 21.6637Z" fill="#FBBC04"/>
<path d="M25.7116 17.2397C27.2387 17.2161 28.7146 17.7908 29.8206 18.8456L32.8788 15.7874C30.9424 13.969 28.3722 12.9693 25.7116 13.0008C21.6615 13.0008 17.9578 15.2836 16.1394 18.9046L19.6975 21.6637C20.5437 19.125 22.9171 17.2397 25.7116 17.2397Z" fill="#EA4335"/>
</g>
<path d="M57.0498 27.3887C57.0498 27.0013 56.9131 26.7051 56.6396 26.5C56.3662 26.2904 55.874 26.0716 55.1631 25.8438C54.4521 25.6113 53.8893 25.3835 53.4746 25.1602C52.3444 24.5495 51.7793 23.7269 51.7793 22.6924C51.7793 22.1546 51.9297 21.6761 52.2305 21.2568C52.5358 20.833 52.971 20.5026 53.5361 20.2656C54.1058 20.0286 54.7438 19.9102 55.4502 19.9102C56.1611 19.9102 56.7946 20.04 57.3506 20.2998C57.9066 20.555 58.3372 20.9173 58.6426 21.3867C58.9525 21.8561 59.1074 22.3893 59.1074 22.9863H57.0566C57.0566 22.5306 56.9131 22.1774 56.626 21.9268C56.3389 21.6715 55.9355 21.5439 55.416 21.5439C54.9147 21.5439 54.5251 21.651 54.2471 21.8652C53.9691 22.0749 53.8301 22.3529 53.8301 22.6992C53.8301 23.0228 53.9919 23.2939 54.3154 23.5127C54.6436 23.7314 55.1243 23.9365 55.7578 24.1279C56.9245 24.4788 57.7744 24.9141 58.3076 25.4336C58.8408 25.9531 59.1074 26.6003 59.1074 27.375C59.1074 28.2363 58.7816 28.9131 58.1299 29.4053C57.4782 29.8929 56.6009 30.1367 55.498 30.1367C54.7324 30.1367 54.0352 29.9977 53.4062 29.7197C52.7773 29.4372 52.2965 29.0521 51.9639 28.5645C51.6357 28.0768 51.4717 27.5117 51.4717 26.8691H53.5293C53.5293 27.9674 54.1855 28.5166 55.498 28.5166C55.9857 28.5166 56.3662 28.4186 56.6396 28.2227C56.9131 28.0221 57.0498 27.7441 57.0498 27.3887ZM62.6826 30H60.6318V20.0469H62.6826V30ZM72.4648 28.7422C72.0957 29.1842 71.5739 29.5283 70.8994 29.7744C70.2249 30.016 69.4775 30.1367 68.6572 30.1367C67.7959 30.1367 67.0394 29.9499 66.3877 29.5762C65.7406 29.1979 65.2393 28.651 64.8838 27.9355C64.5329 27.2201 64.3529 26.3792 64.3438 25.4131V24.7363C64.3438 23.7428 64.5101 22.8838 64.8428 22.1592C65.18 21.43 65.6631 20.874 66.292 20.4912C66.9255 20.1038 67.666 19.9102 68.5137 19.9102C69.694 19.9102 70.6169 20.1927 71.2822 20.7578C71.9476 21.3184 72.3418 22.1364 72.4648 23.2119H70.4688C70.3776 22.6423 70.1748 22.2253 69.8604 21.9609C69.5505 21.6966 69.1221 21.5645 68.5752 21.5645C67.8779 21.5645 67.347 21.8265 66.9824 22.3506C66.6178 22.8747 66.4333 23.654 66.4287 24.6885V25.3242C66.4287 26.3678 66.627 27.1562 67.0234 27.6895C67.4199 28.2227 68.001 28.4893 68.7666 28.4893C69.5368 28.4893 70.0859 28.3252 70.4141 27.9971V26.2812H68.5479V24.7705H72.4648V28.7422ZM82.2266 30H80.1758L76.1836 23.4512V30H74.1328V20.0469H76.1836L80.1826 26.6094V20.0469H82.2266V30ZM89.6846 30H87.6338V20.0469H89.6846V30ZM99.6855 30H97.6348L93.6426 23.4512V30H91.5918V20.0469H93.6426L97.6416 26.6094V20.0469H99.6855V30ZM112.715 27.1289L114.055 20.0469H116.099L113.891 30H111.826L110.206 23.3418L108.586 30H106.521L104.313 20.0469H106.357L107.704 27.1152L109.345 20.0469H111.081L112.715 27.1289ZM119.394 30H117.343V20.0469H119.394V30ZM128.588 21.708H125.539V30H123.488V21.708H120.48V20.0469H128.588V21.708ZM137.864 30H135.813V25.7344H131.814V30H129.764V20.0469H131.814V24.0801H135.813V20.0469H137.864V30ZM151.023 28.7422C150.654 29.1842 150.132 29.5283 149.458 29.7744C148.784 30.016 148.036 30.1367 147.216 30.1367C146.354 30.1367 145.598 29.9499 144.946 29.5762C144.299 29.1979 143.798 28.651 143.442 27.9355C143.091 27.2201 142.911 26.3792 142.902 25.4131V24.7363C142.902 23.7428 143.069 22.8838 143.401 22.1592C143.739 21.43 144.222 20.874 144.851 20.4912C145.484 20.1038 146.225 19.9102 147.072 19.9102C148.253 19.9102 149.175 20.1927 149.841 20.7578C150.506 21.3184 150.9 22.1364 151.023 23.2119H149.027C148.936 22.6423 148.733 22.2253 148.419 21.9609C148.109 21.6966 147.681 21.5645 147.134 21.5645C146.437 21.5645 145.906 21.8265 145.541 22.3506C145.176 22.8747 144.992 23.654 144.987 24.6885V25.3242C144.987 26.3678 145.186 27.1562 145.582 27.6895C145.979 28.2227 146.56 28.4893 147.325 28.4893C148.095 28.4893 148.645 28.3252 148.973 27.9971V26.2812H147.106V24.7705H151.023V28.7422ZM160.867 25.249C160.867 26.2288 160.694 27.0879 160.348 27.8262C160.001 28.5645 159.505 29.1341 158.857 29.5352C158.215 29.9362 157.477 30.1367 156.643 30.1367C155.818 30.1367 155.082 29.9385 154.435 29.542C153.787 29.1455 153.286 28.5804 152.931 27.8467C152.575 27.1084 152.395 26.2607 152.391 25.3037V24.8115C152.391 23.8317 152.566 22.9704 152.917 22.2275C153.272 21.4801 153.771 20.9082 154.414 20.5117C155.061 20.1107 155.799 19.9102 156.629 19.9102C157.458 19.9102 158.194 20.1107 158.837 20.5117C159.484 20.9082 159.983 21.4801 160.334 22.2275C160.689 22.9704 160.867 23.8294 160.867 24.8047V25.249ZM158.789 24.7979C158.789 23.7542 158.602 22.9613 158.229 22.4189C157.855 21.8766 157.322 21.6055 156.629 21.6055C155.941 21.6055 155.41 21.8743 155.036 22.4121C154.662 22.9453 154.473 23.7292 154.469 24.7637V25.249C154.469 26.2653 154.656 27.0537 155.029 27.6143C155.403 28.1748 155.941 28.4551 156.643 28.4551C157.331 28.4551 157.859 28.1862 158.229 27.6484C158.598 27.1061 158.785 26.3177 158.789 25.2832V24.7979ZM170.533 25.249C170.533 26.2288 170.36 27.0879 170.014 27.8262C169.667 28.5645 169.171 29.1341 168.523 29.5352C167.881 29.9362 167.143 30.1367 166.309 30.1367C165.484 30.1367 164.748 29.9385 164.101 29.542C163.453 29.1455 162.952 28.5804 162.597 27.8467C162.241 27.1084 162.061 26.2607 162.057 25.3037V24.8115C162.057 23.8317 162.232 22.9704 162.583 22.2275C162.938 21.4801 163.438 20.9082 164.08 20.5117C164.727 20.1107 165.465 19.9102 166.295 19.9102C167.124 19.9102 167.86 20.1107 168.503 20.5117C169.15 20.9082 169.649 21.4801 170 22.2275C170.355 22.9704 170.533 23.8294 170.533 24.8047V25.249ZM168.455 24.7979C168.455 23.7542 168.268 22.9613 167.895 22.4189C167.521 21.8766 166.988 21.6055 166.295 21.6055C165.607 21.6055 165.076 21.8743 164.702 22.4121C164.328 22.9453 164.139 23.7292 164.135 24.7637V25.249C164.135 26.2653 164.322 27.0537 164.695 27.6143C165.069 28.1748 165.607 28.4551 166.309 28.4551C166.997 28.4551 167.525 28.1862 167.895 27.6484C168.264 27.1061 168.451 26.3177 168.455 25.2832V24.7979ZM179.898 28.7422C179.529 29.1842 179.007 29.5283 178.333 29.7744C177.659 30.016 176.911 30.1367 176.091 30.1367C175.229 30.1367 174.473 29.9499 173.821 29.5762C173.174 29.1979 172.673 28.651 172.317 27.9355C171.966 27.2201 171.786 26.3792 171.777 25.4131V24.7363C171.777 23.7428 171.944 22.8838 172.276 22.1592C172.614 21.43 173.097 20.874 173.726 20.4912C174.359 20.1038 175.1 19.9102 175.947 19.9102C177.128 19.9102 178.05 20.1927 178.716 20.7578C179.381 21.3184 179.775 22.1364 179.898 23.2119H177.902C177.811 22.6423 177.608 22.2253 177.294 21.9609C176.984 21.6966 176.556 21.5645 176.009 21.5645C175.312 21.5645 174.781 21.8265 174.416 22.3506C174.051 22.8747 173.867 23.654 173.862 24.6885V25.3242C173.862 26.3678 174.061 27.1562 174.457 27.6895C174.854 28.2227 175.435 28.4893 176.2 28.4893C176.97 28.4893 177.52 28.3252 177.848 27.9971V26.2812H175.981V24.7705H179.898V28.7422ZM183.617 28.3525H187.972V30H181.566V20.0469H183.617V28.3525ZM195.143 25.6865H191.205V28.3525H195.826V30H189.154V20.0469H195.812V21.708H191.205V24.0801H195.143V25.6865Z" fill="#848484"/>
<defs>
<filter id="filter0_d" x="0" y="0" width="213" height="51" filterUnits="userSpaceOnUse" color-interpolation-filters="sRGB">
<feFlood flood-opacity="0" result="BackgroundImageFix"/>
<feColorMatrix in="SourceAlpha" type="matrix" values="0 0 0 0 0 0 0 0 0 0 0 0 0 0 0 0 0 0 127 0"/>
<feOffset dy="2"/>
<feGaussianBlur stdDeviation="1"/>
<feColorMatrix type="matrix" values="0 0 0 0 0 0 0 0 0 0 0 0 0 0 0 0 0 0 0.1 0"/>
<feBlend mode="normal" in2="BackgroundImageFix" result="effect1_dropShadow"/>
<feBlend mode="normal" in="SourceGraphic" in2="effect1_dropShadow" result="shape"/>
</filter>
<clipPath id="clip0">
<rect x="15" y="13" width="21" height="21.4239" fill="white"/>
</clipPath>
</defs>
</svg>
