<?xml version="1.0" encoding="utf-8"?>
<!-- Generator: Adobe Illustrator 23.0.1, SVG Export Plug-In . SVG Version: 6.00 Build 0)  -->
<svg version="1.1" id="Capa_1" xmlns="http://www.w3.org/2000/svg" xmlns:xlink="http://www.w3.org/1999/xlink" x="0px" y="0px"
	 viewBox="0 0 512 512" style="enable-background:new 0 0 512 512;" xml:space="preserve">
<style type="text/css">
	.st0{fill:url(#SVGID_1_);}
	.st1{fill:url(#SVGID_2_);}
</style>
<linearGradient id="SVGID_1_" gradientUnits="userSpaceOnUse" x1="0" y1="256.7989" x2="512" y2="256.7989">
	<stop  offset="0" style="stop-color:#6BA143"/>
	<stop  offset="1" style="stop-color:#009386"/>
</linearGradient>
<path class="st0" d="M407,46H105C47.1,46,0,93.1,0,151v162.2c0,46.2,30.3,86.4,74.3,99.3l50.7,50.7c2.8,2.8,6.6,4.4,10.6,4.4
	c4,0,7.8-1.6,10.6-4.4l46.5-46.5H407c57.9,0,105-47.1,105-105V151C512,93.1,464.9,46,407,46z M482,311.7c0,41.4-33.6,75-75,75H186.5
	c-4,0-7.8,1.6-10.6,4.4l-40.3,40.3l-42.9-42.9c-1.9-1.9-4.3-3.3-7-3.9C52.9,376.3,30,347,30,313.2V151c0-41.4,33.6-75,75-75h302
	c41.4,0,75,33.6,75,75V311.7z M351.2,189.8H160.8c-8.3,0-15,6.7-15,15c0,8.3,6.7,15,15,15h190.5c8.3,0,15-6.7,15-15
	C366.2,196.5,359.5,189.8,351.2,189.8z M351.2,242.9H160.8c-8.3,0-15,6.7-15,15c0,8.3,6.7,15,15,15h190.5c8.3,0,15-6.7,15-15
	C366.2,249.6,359.5,242.9,351.2,242.9z"/>
<linearGradient id="SVGID_2_" gradientUnits="userSpaceOnUse" x1="-266.8664" y1="253.6914" x2="-266.8664" y2="115.6124">
	<stop  offset="0" style="stop-color:#6BA143"/>
	<stop  offset="1" style="stop-color:#009386"/>
</linearGradient>
<rect x="-335.9" y="115.6" class="st1" width="138.1" height="138.1"/>
</svg>
