<?xml version="1.0" encoding="utf-8"?>
<!-- Generator: Adobe Illustrator 23.0.1, SVG Export Plug-In . SVG Version: 6.00 Build 0)  -->
<svg version="1.1" id="Capa_1" xmlns="http://www.w3.org/2000/svg" xmlns:xlink="http://www.w3.org/1999/xlink" x="0px" y="0px"
	 viewBox="0 0 512 512" style="enable-background:new 0 0 512 512;" xml:space="preserve">
<style type="text/css">
	.st0{fill:url(#SVGID_1_);}
	.st1{fill:url(#SVGID_2_);}
	.st2{fill:url(#SVGID_3_);}
</style>
<linearGradient id="SVGID_1_" gradientUnits="userSpaceOnUse" x1="256" y1="540.6887" x2="256" y2="6.9964" gradientTransform="matrix(1 0 0 -1 0 513.2756)">
	<stop  offset="0" style="stop-color:#6BA143"/>
	<stop  offset="1" style="stop-color:#009386"/>
</linearGradient>
<path class="st0" d="M468.4,71L129.5,32.2C102.6,29.2,78.2,48.4,75,75.4l-5.9,52.1H49.4C22.3,127.5,0,150,0,177.1v254
	c0,27.1,22.3,48.9,49.4,48.9h341c27.1,0.1,49.1-21.8,49.2-48.9c0,0,0,0,0-0.1V421c9.1-0.9,17.8-4.5,24.9-10.2
	c10.4-8.1,17-20,18.5-33.1l28.8-252.3C514.8,98.5,495.4,74.1,468.4,71C468.4,71,468.4,71,468.4,71L468.4,71z M415.8,431.1
	c0,13.9-11.3,25.1-25.2,25.1c0,0-0.1,0-0.1,0h-341c-14,0.1-25.4-11.1-25.6-25.1V385l97.6-71c12-8.6,28.3-7.9,39.4,1.8l68.3,59.6
	c18,15.7,44,18.1,64.5,6l122.1-71.7V431.1z M415.8,282.1l-134.2,78.8c-11.7,6.9-26.5,5.5-36.7-3.4l-68.3-59.6
	c-19.5-17.2-48.3-18.4-69.2-3.1l-83.5,60.8V177.1c0.1-14.1,11.5-25.6,25.6-25.8h341c14,0,25.4,11.9,25.4,25.8V282.1z M488,122.7
	L459.2,375c-0.7,6.7-4.2,12.9-9.5,17.1c-3,2.3-6.4,4-10.1,4.8V177.1c0-27.1-22.1-49.7-49.2-49.7H93.1L98.7,78
	c1.6-13.9,14.1-23.8,28-22.2c0,0,0,0,0.1,0l339,38.8C479.6,96.2,489.6,108.8,488,122.7C488,122.7,488,122.7,488,122.7L488,122.7z"/>
<linearGradient id="SVGID_2_" gradientUnits="userSpaceOnUse" x1="260.5967" y1="540.6887" x2="260.5967" y2="6.9964" gradientTransform="matrix(1 0 0 -1 0 513.2756)">
	<stop  offset="0" style="stop-color:#6BA143"/>
	<stop  offset="1" style="stop-color:#009386"/>
</linearGradient>
<path class="st1" d="M260.6,190c-28.5,0-51.7,23.1-51.7,51.7s23.1,51.7,51.7,51.7c28.5,0,51.7-23.1,51.7-51.7c0,0,0,0,0,0
	C312.2,213.2,289.1,190.1,260.6,190L260.6,190z M260.6,269.5c-15.4,0-27.8-12.5-27.8-27.8c0-15.4,12.5-27.8,27.8-27.8
	c15.4,0,27.8,12.5,27.8,27.8C288.4,257.1,276,269.5,260.6,269.5z"/>
<linearGradient id="SVGID_3_" gradientUnits="userSpaceOnUse" x1="-254.8663" y1="237.7424" x2="-254.8663" y2="99.6634">
	<stop  offset="0" style="stop-color:#6BA143"/>
	<stop  offset="1" style="stop-color:#009386"/>
</linearGradient>
<rect x="-323.9" y="99.7" class="st2" width="138.1" height="138.1"/>
</svg>
