<?xml version="1.0" encoding="utf-8"?>
<!-- Generator: Adobe Illustrator 23.0.1, SVG Export Plug-In . SVG Version: 6.00 Build 0)  -->
<svg version="1.1" id="Capa_1" xmlns="http://www.w3.org/2000/svg" xmlns:xlink="http://www.w3.org/1999/xlink" x="0px" y="0px"
	 viewBox="0 0 496 496" style="enable-background:new 0 0 496 496;" xml:space="preserve">
<style type="text/css">
	.st0{fill:url(#SVGID_1_);}
</style>
<linearGradient id="SVGID_1_" gradientUnits="userSpaceOnUse" x1="-306.4449" y1="-306.4634" x2="588.5589" y2="588.5513">
	<stop  offset="0" style="stop-color:#6BA143"/>
	<stop  offset="1" style="stop-color:#009386"/>
</linearGradient>
<path class="st0" d="M8,168h480c4.4,0,8-3.6,8-8s-3.6-8-8-8h-11.5C438.9,61.5,351.3,1.9,253.3,0.2H253c-0.5-0.1-1-0.1-1.5-0.1
	c-2.1-0.2-4.1-0.2-6.2,0c-0.8,0-1.5,0-2.2,0.1H243c-0.1,0-0.2,0-0.3,0C144.7,1.9,57.1,61.5,19.5,152H8c-4.4,0-8,3.6-8,8
	S3.6,168,8,168z M317,76.2c-20.3,2.3-40.6,3.5-61,3.8V16.9C278.7,21,300.2,42.6,317,76.2z M240,16.9v63.1c-20.4-0.2-40.7-1.5-61-3.8
	C195.8,42.8,217.2,21.3,240,16.9z M240,95.9V152h-86.4c4.2-20.7,10.3-41,18.3-60.6C194.5,94.2,217.2,95.7,240,95.9z M256,95.9
	c22.8-0.2,45.5-1.7,68.1-4.5c8,19.6,14.1,39.9,18.3,60.6H256V95.9z M340.3,89.1c11-1.8,21.5-3.9,31.1-6.3
	c15.8,20.9,28.2,44.3,36.6,69.2h-49.3C354.5,130.5,348.4,109.4,340.3,89.1z M333.7,74c-7.6-16.7-17.7-32.2-30-46
	c21.4,9.7,40.5,23.7,56.2,41.1C351.8,70.9,343,72.6,333.7,74z M162.3,74c-9.3-1.4-18-3-26.3-4.9c15.7-17.5,34.9-31.5,56.3-41.2
	C180,41.7,169.9,57.2,162.3,74z M155.7,89.1c-8,20.4-14.2,41.4-18.3,62.9H88c8.4-24.9,20.7-48.3,36.6-69.2
	C134.2,85.2,144.6,87.3,155.7,89.1z M459.1,152h-34.2c-8.3-26.4-20.8-51.3-36.9-73.8c4.6-1.5,9-3,13.1-4.7
	C425.8,95.2,445.5,122,459.1,152z M386.6,61.8c-2.9,1-6,2-9.2,2.9C370.5,56.5,363,49,355,42C366.1,47.7,376.6,54.3,386.6,61.8z
	 M118.6,64.7c-3.2-0.9-6.3-1.9-9.2-2.9c10-7.5,20.6-14.1,31.7-19.8C133,48.9,125.5,56.5,118.6,64.7z M94.9,73.5
	c4.1,1.6,8.5,3.2,13.1,4.7c-16.1,22.5-28.6,47.4-36.9,73.8H36.9C50.5,122,70.2,95.2,94.9,73.5z M488,328H8c-4.4,0-8,3.6-8,8
	s3.6,8,8,8h11.5c37.6,90.5,125.2,150.1,223.2,151.8h0.3c0.5,0.1,1,0.1,1.5,0.1h0.8h0.5c0.8,0.1,1.5,0.1,2.3,0.1c1,0,1.9,0,2.5-0.1
	c0.8,0,1.6,0,2.4-0.1h0.1h0.3c98-1.7,185.6-61.3,223.2-151.8H488c4.4,0,8-3.6,8-8S492.4,328,488,328z M179,419.8
	c20.3-2.3,40.6-3.5,61-3.8v63.1C217.3,475,195.8,453.4,179,419.8z M256,479.1v-63.1c20.4,0.2,40.7,1.5,61,3.8
	C300.2,453.2,278.8,474.7,256,479.1z M256,400.1V344h86.4c-4.2,20.7-10.3,41-18.3,60.6C301.5,401.8,278.8,400.3,256,400.1z
	 M240,400.1c-22.8,0.2-45.5,1.7-68.1,4.5c-8-19.6-14.1-39.9-18.3-60.6H240V400.1z M155.7,406.9c-11,1.8-21.5,3.9-31.1,6.3
	C108.7,392.2,96.4,368.9,88,344h49.3C141.5,365.5,147.6,386.5,155.7,406.9z M162.3,422c7.6,16.8,17.7,32.3,30,46
	c-21.4-9.7-40.5-23.7-56.2-41.1C144.2,425,153,423.4,162.3,422z M333.7,422c9.3,1.4,18,3,26.3,4.9c-15.7,17.5-34.9,31.5-56.3,41.2
	C316,454.3,326.1,438.8,333.7,422z M340.3,406.9c8-20.4,14.2-41.4,18.3-62.9H408c-8.4,24.9-20.7,48.3-36.6,69.2
	C361.8,410.8,351.4,408.7,340.3,406.9z M36.9,344h34.2c8.3,26.4,20.8,51.3,36.9,73.8c-4.6,1.5-9,3-13.1,4.7
	C70.2,400.7,50.5,374,36.9,344z M109.4,434.2c2.9-1,6-2,9.2-2.9c6.9,8.1,14.4,15.7,22.4,22.7C130,448.3,119.4,441.6,109.4,434.2z
	 M377.4,431.3c3.2,0.9,6.3,1.9,9.2,2.9c-10,7.5-20.6,14.1-31.7,19.8C363,447,370.5,439.4,377.4,431.3z M401.1,422.5
	c-4.1-1.6-8.5-3.2-13.1-4.7c16.1-22.5,28.6-47.4,36.9-73.8h34.2C445.5,374,425.8,400.7,401.1,422.5z M288.3,205.7l-18.2,60.7
	l-14.9-30c-1.5-2.5-4.2-4.1-7.2-4.1c-2.9,0-5.7,1.5-7.2,4.1l-15,30l-18.2-60.7c-1.3-4.2-5.7-6.6-10-5.4c-4.2,1.3-6.6,5.7-5.4,10
	l24,80c0.9,3.1,3.7,5.4,7,5.7c3.3,0.3,6.4-1.4,7.8-4.4l16.8-33.7l16.8,33.7c1.4,2.7,4.2,4.4,7.2,4.4c0.2,0,0.5,0,0.7,0
	c3.3-0.3,6-2.5,7-5.7l24-80c1.3-4.2-1.1-8.7-5.4-10C294.1,199.1,289.6,201.5,288.3,205.7L288.3,205.7z M416.3,205.7l-18.2,60.7
	l-14.9-30c-1.5-2.5-4.2-4.1-7.2-4.1c-2.9,0-5.7,1.5-7.2,4.1l-15,30l-18.2-60.7c-1.3-4.2-5.7-6.6-10-5.4c-4.2,1.3-6.6,5.7-5.4,10
	l24,80c0.9,3.1,3.7,5.4,7,5.7c3.3,0.3,6.4-1.4,7.8-4.4l16.8-33.7l16.8,33.7c1.4,2.7,4.2,4.4,7.2,4.4c0.2,0,0.5,0,0.7,0
	c3.3-0.3,6-2.5,7-5.7l24-80c1.3-4.2-1.1-8.7-5.4-10C422.1,199.1,417.6,201.5,416.3,205.7L416.3,205.7z M160.3,205.7l-18.2,60.7
	l-14.9-30c-1.5-2.5-4.2-4.1-7.2-4.1c-2.9,0-5.7,1.5-7.2,4.1l-15,30l-18.2-60.7c-1.3-4.2-5.7-6.6-10-5.4c-4.2,1.3-6.6,5.7-5.4,10
	l24,80c0.9,3.1,3.7,5.4,7,5.7c3.3,0.3,6.4-1.4,7.8-4.4l16.8-33.7l16.8,33.7c1.4,2.7,4.1,4.4,7.2,4.4c0.2,0,0.5,0,0.7,0
	c3.3-0.3,6-2.5,7-5.7l24-80c1.3-4.2-1.1-8.7-5.4-10C166.1,199.1,161.6,201.5,160.3,205.7L160.3,205.7z"/>
</svg>
